<?xml version="1.0" encoding="iso-8859-1"?>
<!-- Generator: Adobe Illustrator 16.0.0, SVG Export Plug-In . SVG Version: 6.00 Build 0)  -->
<!DOCTYPE svg PUBLIC "-//W3C//DTD SVG 1.1//EN" "http://www.w3.org/Graphics/SVG/1.1/DTD/svg11.dtd">
<svg version="1.1" id="Capa_1" xmlns="http://www.w3.org/2000/svg" xmlns:xlink="http://www.w3.org/1999/xlink" x="0px" y="0px"
	 width="30.144px" height="30.144px" viewBox="0 0 30.144 30.144" style="enable-background:new 0 0 30.144 30.144; fill: #fff;"
	 xml:space="preserve">
<g>
	<g>
		<g>
			<circle cx="8.867" cy="18.122" r="0.878"/>
			<path d="M12.204,16.724c-0.452,0-0.82,0.369-0.82,0.823c0,0.455,0.368,0.822,0.82,0.822c0.456,0,0.825-0.367,0.825-0.822
				C13.029,17.093,12.66,16.724,12.204,16.724z"/>
			<circle cx="11.009" cy="19.424" r="0.749"/>
			<circle cx="15.011" cy="18.774" r="0.651"/>
			<circle cx="6.787" cy="19.813" r="0.568"/>
			<path d="M27.782,8.335C27.595,8.122,27.324,8,27.04,8h-6.627V0.99c0-0.328-0.162-0.634-0.433-0.818
				c-0.271-0.184-0.614-0.223-0.921-0.104l-7.215,2.83c-0.51,0.2-0.762,0.775-0.561,1.285c0.199,0.51,0.775,0.761,1.284,0.561
				l5.861-2.299V8h-6.626c-0.279,0-0.545,0.117-0.733,0.323c-0.188,0.206-0.28,0.482-0.253,0.761l0.505,5.336
				c-0.013,0-0.026-0.002-0.039-0.002c-4.121,0-7.561,3.222-7.829,7.336c-0.011,0.156,0.012,0.311,0.05,0.461
				c-0.803,0.253-1.389,0.996-1.389,1.882c0,0.931,0.643,1.705,1.506,1.918c-0.075,0.233-0.099,0.48-0.053,0.729
				c0.179,0.957,0.534,1.864,1.056,2.701c0.272,0.437,0.749,0.699,1.262,0.699h10.792c0.425,0,0.816-0.188,1.096-0.496h6.823
				c0.501,0,0.923-0.372,0.981-0.869l2.443-19.667C28.058,8.831,27.97,8.548,27.782,8.335z M11.283,15.904
				c3.372,0,6.125,2.628,6.343,5.946H4.938C5.155,18.532,7.907,15.904,11.283,15.904z M16.679,28.657H5.885
				c-0.411-0.659-0.707-1.396-0.855-2.188h12.504C17.386,27.262,17.089,27.999,16.679,28.657z M17.411,24.594h-5.125H5.152
				c-0.274,0-0.496-0.222-0.496-0.496c0-0.273,0.222-0.496,0.496-0.496h7.04h5.219c0.274,0,0.496,0.223,0.496,0.496
				C17.907,24.372,17.686,24.594,17.411,24.594z"/>
		</g>
	</g>
</g>
<g>
</g>
<g>
</g>
<g>
</g>
<g>
</g>
<g>
</g>
<g>
</g>
<g>
</g>
<g>
</g>
<g>
</g>
<g>
</g>
<g>
</g>
<g>
</g>
<g>
</g>
<g>
</g>
<g>
</g>
</svg>
